<svg width="18" height="18" viewBox="0 0 18 18" fill="none" xmlns="http://www.w3.org/2000/svg">
<path d="M12.2477 4.67109C11.682 3.34684 10.6765 2.25852 9.40101 1.59014C8.12553 0.921747 6.65839 0.714292 5.2476 1.00284C3.83682 1.29139 2.56895 2.05825 1.65834 3.17376C0.747729 4.28927 0.250248 5.68501 0.25 7.125V12.2812C0.25 12.5713 0.365234 12.8495 0.570352 13.0546C0.77547 13.2598 1.05367 13.375 1.34375 13.375H5.77109C6.25882 14.4888 7.06026 15.4365 8.07758 16.1024C9.09491 16.7683 10.2841 17.1236 11.5 17.125H16.6562C16.9463 17.125 17.2245 17.0098 17.4296 16.8046C17.6348 16.5995 17.75 16.3213 17.75 16.0312V10.875C17.7497 9.34708 17.1897 7.8722 16.1759 6.72909C15.1621 5.58599 13.7646 4.85387 12.2477 4.67109ZM1.5 7.125C1.5 6.13609 1.79324 5.16939 2.34265 4.34715C2.89206 3.5249 3.67295 2.88404 4.58658 2.5056C5.50021 2.12716 6.50555 2.02815 7.47545 2.22107C8.44536 2.414 9.33627 2.8902 10.0355 3.58947C10.7348 4.28873 11.211 5.17964 11.4039 6.14955C11.5969 7.11945 11.4978 8.12479 11.1194 9.03842C10.741 9.95205 10.1001 10.7329 9.27785 11.2823C8.4556 11.8318 7.48891 12.125 6.5 12.125H1.5V7.125ZM16.5 15.875H11.5C10.6159 15.874 9.74775 15.6391 8.98375 15.1941C8.21976 14.7491 7.5871 14.1099 7.15 13.3414C8.00603 13.2526 8.83445 12.9878 9.58328 12.5636C10.3321 12.1394 10.9852 11.565 11.5015 10.8764C12.0178 10.1879 12.3862 9.40004 12.5836 8.56235C12.7809 7.72466 12.803 6.85522 12.6484 6.00859C13.7447 6.26732 14.7216 6.88865 15.4206 7.7719C16.1197 8.65515 16.5 9.74858 16.5 10.875V15.875Z" fill="black"/>
</svg>
