<svg style="max-height: 500px" version="1.0" xmlns="http://www.w3.org/2000/svg" viewBox="111.58383333333333 201.60072340425532 91.78538690476189 95.84697872340425" preserveAspectRatio="xMidYMid meet" width="91.78538690476189" height="95.84697872340425">

<g transform="translate(0.000000,497.000000) scale(0.100000,-0.100000)" fill="#000000" stroke="none">
<path d="M1311 2869 c-46 -14 -124 -94 -139 -145 -8 -27 -12 -114 -12 -250 0&#10;-198 1 -212 24 -259 27 -60 81 -110 133 -124 52 -15 435 -14 484 0 55 17 108&#10;65 135 123 23 49 24 61 24 262 0 240 -7 274 -67 336 -59 61 -97 68 -337 67&#10;-116 0 -226 -5 -245 -10z m499 -389 l0 -220 -250 0 -250 0 0 220 0 220 250 0&#10;250 0 0 -220z"/>
<path d="M1355 2661 c-4 -7 15 -11 56 -11 34 0 59 3 55 7 -12 12 -104 15 -111&#10;4z"/>
<path d="M1330 2445 l0 -165 230 0 230 0 0 165 0 165 -230 0 -230 0 0 -165z&#10;m380 0 l0 -75 -150 0 -150 0 0 75 0 75 150 0 150 0 0 -75z"/>
<path d="M1449 2473 c0 -5 -2 -15 -4 -24 -1 -9 1 -23 6 -30 6 -10 9 -2 9 24 0&#10;20 -2 37 -5 37 -3 0 -5 -3 -6 -7z"/>
<path d="M1470 2445 c0 -33 2 -35 35 -35 33 0 35 2 35 35 0 33 -2 35 -35 35&#10;-33 0 -35 -2 -35 -35z m54 0 c4 -10 -1 -15 -14 -15 -11 0 -20 7 -20 15 0 8 6&#10;15 14 15 8 0 16 -7 20 -15z"/>
<path d="M1550 2445 c0 -19 5 -35 10 -35 6 0 10 16 10 35 0 19 -4 35 -10 35&#10;-5 0 -10 -16 -10 -35z"/>
<path d="M1580 2445 c0 -33 2 -35 35 -35 33 0 35 2 35 35 0 33 -2 35 -35 35&#10;-33 0 -35 -2 -35 -35z m50 1 c0 -15 -24 -28 -34 -19 -13 14 -5 33 14 33 11 0&#10;20 -6 20 -14z"/>
<path d="M1663 2445 c0 -22 2 -30 4 -17 2 12 2 30 0 40 -3 9 -5 -1 -4 -23z"/>
<path d="M3080 2619 c0 -64 -2 -70 -17 -63 -10 4 -37 9 -61 12 -80 8 -122 -46&#10;-122 -157 0 -69 10 -101 41 -130 27 -25 103 -28 133 -6 23 17 40 20 31 5 -4&#10;-6 7 -10 24 -10 l31 0 0 210 0 210 -30 0 -30 0 0 -71z m-25 -111 c24 -11 25&#10;-15 25 -89 0 -69 -2 -80 -22 -93 -31 -22 -74 -20 -98 4 -15 15 -20 33 -20 79&#10;0 93 44 132 115 99z"/>
<path d="M2245 2655 c-16 -9 -41 -32 -55 -52 -23 -33 -25 -46 -25 -137 0 -88&#10;3 -106 23 -137 29 -47 75 -69 147 -69 59 0 85 9 123 43 28 26 28 35 -3 49 -22&#10;10 -29 8 -50 -12 -36 -34 -106 -34 -140 1 -47 47 -55 164 -17 231 30 51 118&#10;61 158 17 21 -24 36 -24 57 -1 16 17 16 20 -6 39 -12 11 -32 26 -44 32 -31 16&#10;-133 13 -168 -4z"/>
<path d="M3588 2465 l-67 -195 33 0 c31 0 34 3 46 45 l13 45 81 0 82 0 14 -42&#10;c13 -38 19 -43 48 -46 29 -3 33 -1 28 15 -3 10 -32 97 -64 193 l-59 175 -44 3&#10;-44 3 -67 -196z m142 33 c11 -34 20 -66 20 -70 0 -5 -25 -8 -55 -8 -30 0 -55&#10;3 -55 7 0 5 12 43 26 87 30 88 32 87 64 -16z"/>
<path d="M3920 2635 c0 -20 5 -25 25 -25 l25 0 0 -145 0 -145 -25 0 c-20 0&#10;-25 -5 -25 -25 0 -25 1 -25 85 -25 84 0 85 0 85 25 0 20 -5 25 -25 25 l-25 0&#10;0 145 0 145 25 0 c20 0 25 5 25 25 0 25 -1 25 -85 25 -84 0 -85 0 -85 -25z"/>
<path d="M2599 2555 c-37 -20 -59 -73 -59 -139 0 -102 46 -156 135 -156 91 0&#10;135 50 135 155 0 69 -23 121 -61 140 -35 19 -116 19 -150 0z m125 -51 c22 -22&#10;29 -57 24 -116 -6 -59 -24 -78 -74 -78 -47 0 -74 38 -74 105 0 68 27 105 75&#10;105 18 0 41 -7 49 -16z"/>
<path d="M3278 2553 c-77 -48 -75 -238 3 -278 73 -38 226 2 173 46 -11 9 -21&#10;9 -40 0 -45 -20 -90 -14 -114 16 -11 15 -20 36 -18 47 3 19 11 21 101 24 l97&#10;3 0 30 c0 41 -24 93 -51 113 -31 21 -116 21 -151 -1z m105 -34 c27 -14 37 -28&#10;37 -51 0 -16 -10 -18 -70 -18 -38 0 -70 2 -70 4 0 21 24 58 42 66 31 12 36 12&#10;61 -1z"/>
</g>
</svg>